<!-- Generated by IcoMoon.io -->
<svg version="1.1" xmlns="http://www.w3.org/2000/svg" width="768" height="768" viewBox="0 0 768 768">
<title></title>
<g id="icomoon-ignore">
</g>
<path fill="#fff" d="M488.928 329.056c11.456-7.072 19.104-16.672 22.816-28.928-11.168 5.952-22.304 9.984-33.44 12.256-9.984-10.752-22.656-16.224-37.824-16.224-14.848 0-27.36 5.216-37.6 15.328-10.144 10.176-15.296 22.592-15.296 37.056 0 4.384 0.544 8.32 1.664 11.648-43.776-1.536-79.968-19.648-108.512-54.592-4.832 8.544-7.264 17.248-7.264 26.24 0 18.496 7.808 33.152 23.36 43.936-8.864-0.736-16.672-3.008-23.36-6.688 0 13.216 3.872 24.256 11.68 33.984 7.776 9.6 17.824 15.744 30.048 18.336-4.448 1.152-9.12 1.696-13.92 1.696-4.48 0-7.584-0.384-9.472-1.184 3.328 10.784 9.472 19.488 18.368 26.176 8.864 6.72 19.104 10.24 30.624 10.56-18.912 14.88-40.608 22.208-65.12 22.208-6.016 0-10.24-0.064-12.8-0.544 24.128 15.648 51.008 23.456 80.672 23.456 30.432 0 57.344-7.712 80.704-23.136 23.36-15.328 40.672-34.24 51.744-56.544 11.136-22.24 16.672-45.408 16.672-69.568v-6.688c10.752-8.096 19.488-17.216 26.176-27.328-9.536 4.256-19.552 7.104-29.92 8.544z"></path>
<path fill="#fff" d="M384 672c-79.68 0-148.32-28.48-204.032-84.672-55.712-56.032-83.968-124.448-83.968-203.328 0-79.616 28.288-148.288 84.064-204 55.68-55.712 124.288-84 203.936-84 78.912 0 147.328 28.256 203.328 83.968 56.192 55.744 84.672 124.416 84.672 204.032 0 78.88-28.448 147.328-84.608 203.424-56.032 56.096-124.448 84.576-203.392 84.576zM384 160c-62.912 0-114.816 21.344-158.656 65.28-44 43.904-65.344 95.808-65.344 158.72 0 62.208 21.376 113.984 65.376 158.24 43.904 44.256 95.776 65.76 158.624 65.76 62.176 0 113.92-21.536 158.144-65.824 44.32-44.288 65.856-96.064 65.856-158.176 0-62.816-21.504-114.72-65.76-158.624-44.256-44-96-65.376-158.24-65.376z"></path>
</svg>
